<svg width="12" height="12" viewBox="0 0 12 12" fill="none" xmlns="http://www.w3.org/2000/svg">
<rect width="12" height="12" rx="2" fill="#4EB036"/>
<path d="M4.31576 11C4.19013 11 4.06965 10.9473 3.98081 10.8536C3.89198 10.7598 3.84207 10.6326 3.84207 10.5C3.84207 10.3674 3.89198 10.2402 3.98081 10.1464C4.06965 10.0527 4.19013 10 4.31576 10H4.78946V8.9995L2.42098 9C2.29536 8.99997 2.1749 8.94728 2.08608 8.8535L1.13869 7.8535C1.04989 7.75974 1 7.63258 1 7.5C1 7.36742 1.04989 7.24026 1.13869 7.1465L2.08608 6.1465C2.1749 6.05273 2.29536 6.00003 2.42098 6L4.78946 5.9995V5H3.36837C3.24274 5 3.12226 4.94732 3.03342 4.85355C2.94459 4.75979 2.89468 4.63261 2.89468 4.5V2.5C2.89468 2.36739 2.94459 2.24021 3.03342 2.14645C3.12226 2.05268 3.24274 2 3.36837 2H4.78946V1.5C4.78946 1.36739 4.83936 1.24021 4.9282 1.14645C5.01703 1.05268 5.13752 1 5.26315 1C5.38878 1 5.50927 1.05268 5.59811 1.14645C5.68694 1.24021 5.73685 1.36739 5.73685 1.5V2H8.57902C8.70464 2.00003 8.8251 2.05273 8.91392 2.1465L9.86131 3.1465C9.95011 3.24026 10 3.36742 10 3.5C10 3.63258 9.95011 3.75974 9.86131 3.8535L8.91392 4.8535C8.8251 4.94727 8.70464 4.99997 8.57902 5H5.73685V5.9995L6.21054 6C6.33617 6 6.45666 6.05268 6.5455 6.14645C6.63433 6.24021 6.68424 6.36739 6.68424 6.5V8.5C6.68424 8.63261 6.63433 8.75979 6.5455 8.85355C6.45666 8.94732 6.33617 9 6.21054 9L5.73685 8.9995V10H6.21054C6.33617 10 6.45666 10.0527 6.5455 10.1464C6.63433 10.2402 6.68424 10.3674 6.68424 10.5C6.68424 10.6326 6.63433 10.7598 6.5455 10.8536C6.45666 10.9473 6.33617 11 6.21054 11H4.31576Z" fill="white"/>
</svg>
